<svg width="320" height="41" xmlns="http://www.w3.org/2000/svg" xmlns:xlink="http://www.w3.org/1999/xlink" xml:space="preserve" overflow="hidden"><defs><clipPath id="clip0"><rect x="76" y="660" width="320" height="41"/></clipPath><clipPath id="clip1"><rect x="76" y="660" width="320" height="41"/></clipPath></defs><g clip-path="url(#clip0)" transform="translate(-76 -660)"><g clip-path="url(#clip1)"><path d="M144.682 4.85142C145.744 4.886 146.558 5.01454 147.124 5.23705 147.676 5.44531 148.096 5.90338 148.255 6.47108 148.443 7.07125 148.538 8.00534 148.538 9.27335L148.538 34.7766C148.538 36.0106 148.444 36.9361 148.255 37.5531 148.111 38.1206 147.698 38.5816 147.15 38.7871 146.601 38.9928 145.779 39.1299 144.682 39.1985L144.682 40.2268C145.813 40.1931 147.081 40.1588 148.487 40.124 149.892 40.0892 151.332 40.0721 152.806 40.0726 154.657 40.0726 156.422 40.0897 158.102 40.124 159.782 40.1583 161.153 40.1926 162.216 40.2268L162.216 39.0957C160.673 39.062 159.507 38.942 158.719 38.7357 157.931 38.5295 157.399 38.101 157.125 37.4503 156.85 36.7996 156.713 35.8055 156.714 34.4681L156.714 9.27335C156.714 7.49137 156.911 6.30876 157.305 5.72552 157.699 5.14228 158.565 4.85091 159.902 4.85142 162.232 4.85142 163.878 5.65696 164.838 7.26805 165.798 8.87914 166.278 11.3129 166.278 14.5694 166.289 16.2162 166.091 17.8577 165.686 19.4541 165.292 20.9629 164.572 22.1798 163.527 23.1047 162.482 24.0296 160.948 24.4924 158.925 24.493L156.673 24.4991 156.673 25.5577 159.439 25.5214C162.454 25.5214 164.957 25.1614 166.946 24.4416 168.933 23.7217 170.501 22.7877 171.651 21.6393 172.736 20.5873 173.571 19.3044 174.093 17.8858 174.553 16.6423 174.796 15.3294 174.813 14.0038 174.813 11.0216 173.63 8.58778 171.265 6.70246 168.9 4.81714 165.335 3.87448 160.57 3.87448 159.918 3.87448 158.821 3.89162 157.279 3.9259 155.737 3.96018 154.143 3.97732 152.498 3.97732 151.058 3.97732 149.609 3.96018 148.153 3.9259 146.696 3.89162 145.539 3.85734 144.682 3.82306L144.682 4.85142ZM191.832 13.5667C190.936 13.9988 190.133 14.6014 189.467 15.3406 188.786 16.0864 188.231 16.9372 187.822 17.8601L187.822 13.0783C186.677 13.3312 185.518 13.5115 184.351 13.6181 183.099 13.7391 181.753 13.7991 180.315 13.7981 179.286 13.7981 178.224 13.7467 177.127 13.6439L177.127 14.7236C178.394 14.7236 179.26 15.0921 179.723 15.8291 180.187 16.5661 180.418 17.7059 180.417 19.2484L180.417 35.445C180.417 36.8847 180.169 37.8616 179.672 38.3758 179.175 38.89 178.326 39.1471 177.127 39.1471L177.127 40.2268C177.847 40.1931 178.909 40.1502 180.315 40.0983 181.72 40.0464 183.108 40.0207 184.479 40.0212 186.125 40.0212 187.702 40.0469 189.21 40.0983 190.718 40.1497 191.866 40.1926 192.655 40.2268L192.655 39.1471C191.043 39.1471 189.834 38.8557 189.03 38.273 188.225 37.6902 187.823 36.5762 187.822 34.9308L187.822 21.3051C187.828 20.5793 187.95 19.8591 188.181 19.1713 188.416 18.4459 188.744 17.7544 189.158 17.1146 189.554 16.4968 190.06 15.9567 190.65 15.5206 191.193 15.1089 191.828 14.8354 192.501 14.7236 192.963 14.5532 193.467 14.5352 193.94 14.6722 193.302 15.1042 192.753 15.6539 192.321 16.2919 191.891 16.927 191.677 17.724 191.678 18.6828 191.678 19.6774 192.012 20.4744 192.681 21.0737 193.349 21.6731 194.283 21.973 195.483 21.9735 196.682 21.9735 197.65 21.5708 198.388 20.7652 199.125 19.9597 199.494 18.9227 199.493 17.6544 199.495 16.874 199.328 16.1024 199.005 15.3921 198.676 14.6697 198.151 14.0548 197.488 13.6181 196.802 13.1554 195.91 12.924 194.814 12.924 193.784 12.9094 192.765 13.1291 191.832 13.5667ZM207.899 14.3123C205.996 15.2378 204.505 16.7289 203.425 18.7856 202.346 20.8423 201.806 23.5675 201.806 26.9611 201.806 30.3546 202.346 33.0712 203.425 35.1108 204.505 37.1503 205.996 38.6329 207.899 39.5584 209.801 40.4839 211.969 40.9467 214.403 40.9467 216.906 40.9467 219.1 40.4839 220.985 39.5584 222.869 38.6329 224.343 37.1503 225.406 35.1108 226.47 33.0718 227.001 30.3552 227 26.9611 227 23.5669 226.469 20.8417 225.406 18.7856 224.345 16.7289 222.871 15.2378 220.985 14.3123 219.1 13.3868 216.906 12.924 214.403 12.924 211.97 12.924 209.802 13.3868 207.899 14.3123ZM217.874 17.0117C218.783 19.0515 219.237 22.3679 219.236 26.9611 219.236 31.5542 218.782 34.8621 217.874 36.8847 216.966 38.9076 215.809 39.9188 214.403 39.9183 213.033 39.9183 211.885 38.9071 210.958 36.8847 210.032 34.8623 209.569 31.5544 209.57 26.9611 209.57 22.3679 210.033 19.0515 210.958 17.0117 211.884 14.9719 213.032 13.9522 214.403 13.9524 215.809 13.9524 216.966 14.9721 217.874 17.0117ZM237.207 6.47108C235.895 6.73747 234.56 6.86671 233.222 6.85671L233.222 13.6439 228.903 13.6439 228.903 14.6722 233.222 14.6722 233.222 32.0514C233.222 33.8341 233.342 35.2824 233.582 36.3962 233.954 38.3324 235.354 39.9104 237.233 40.5096 238.196 40.817 239.204 40.9646 240.215 40.9467 242.134 40.9467 243.651 40.4497 244.765 39.4556 245.906 38.4197 246.764 37.1102 247.259 35.6507L246.385 35.1879C245.904 36.3191 245.356 37.1161 244.74 37.5788 244.124 38.0416 243.507 38.273 242.888 38.273 242.134 38.273 241.568 38.0587 241.192 37.6302 240.814 37.202 240.625 36.4735 240.626 35.445L240.626 14.6722 246.693 14.6722 246.693 13.6439 240.626 13.6439 240.626 5.21134C239.555 5.79734 238.402 6.22183 237.207 6.47108ZM255.049 14.4923C253.146 15.5384 251.655 17.1237 250.575 19.2484 249.496 21.3731 248.956 24.0296 248.956 27.2181 248.956 30.3377 249.461 32.9086 250.473 34.9308 251.484 36.953 252.881 38.4613 254.663 39.4556 256.445 40.4495 258.501 40.9465 260.833 40.9467 262.752 40.9467 264.398 40.5525 265.769 39.7641 267.104 39.0071 268.262 37.9727 269.163 36.7304 270.014 35.575 270.674 34.2903 271.117 32.9255L270.191 32.617C269.505 33.7145 268.768 34.5629 267.98 35.1622 267.283 35.7143 266.49 36.1327 265.641 36.3962 264.915 36.6126 264.162 36.7252 263.404 36.7304 262.341 36.7304 261.296 36.3962 260.268 35.7278 259.24 35.0594 258.391 33.9882 257.723 32.5142 257.054 31.0408 256.72 29.1212 256.72 26.7554 256.72 26.2757 256.727 25.8129 256.746 25.3671 256.764 24.9213 256.788 24.493 256.823 24.0817L256.668 23.7732C256.839 20.2768 257.345 17.7744 258.185 16.2662 259.026 14.7579 260.045 14.0038 261.245 14.0038 262.101 14.0038 262.786 14.4323 263.301 15.2892 263.817 16.1462 264.194 17.2859 264.433 18.7085 264.679 20.2467 264.783 21.8045 264.741 23.3618L256.62 23.3618 256.723 24.3388 271.22 24.3388C271.22 20.2945 270.363 17.3808 268.649 15.5977 266.935 13.8146 264.57 12.9234 261.553 12.924 259.118 12.924 256.95 13.4468 255.049 14.4923ZM277.467 1.43214C276.626 2.13515 276.206 3.10352 276.207 4.33724 276.208 5.57096 276.628 6.53933 277.467 7.24234 278.306 7.94536 279.446 8.29671 280.886 8.29641 282.326 8.29611 283.466 7.94475 284.305 7.24234 285.145 6.54014 285.565 5.57177 285.565 4.33724 285.566 3.10271 285.146 2.13434 284.305 1.43214 283.465 0.729931 282.325 0.378576 280.886 0.378072 279.448 0.377568 278.308 0.728923 277.467 1.43214ZM281.426 13.6181C280.174 13.7391 278.828 13.7991 277.39 13.7981 276.361 13.7981 275.299 13.7467 274.202 13.6439L274.202 14.7236C275.469 14.7236 276.335 15.0921 276.798 15.8291 277.262 16.5661 277.494 17.7059 277.493 19.2484L277.493 35.445C277.493 36.8847 277.244 37.8616 276.747 38.3758 276.25 38.89 275.402 39.1471 274.202 39.1471L274.202 40.2268C274.887 40.1931 275.915 40.1502 277.287 40.0983 278.657 40.0469 280.011 40.0212 281.349 40.0212 282.687 40.0212 283.998 40.0469 285.282 40.0983 286.568 40.1497 287.536 40.1926 288.188 40.2268L288.188 39.1471C286.987 39.1471 286.138 38.89 285.642 38.3758 285.146 37.8616 284.898 36.8847 284.897 35.445L284.897 13.0783C283.752 13.3312 282.593 13.5115 281.426 13.6181ZM304.588 14.0038C303.114 14.7236 301.948 15.9577 301.092 17.7059L301.092 13.0783C299.948 13.3312 298.788 13.5115 297.621 13.6181 296.369 13.7391 295.024 13.7991 293.585 13.7981 292.557 13.7981 291.494 13.7467 290.397 13.6439L290.397 14.7236C291.664 14.7236 292.53 15.0921 292.994 15.8291 293.457 16.5661 293.689 17.7059 293.688 19.2484L293.688 35.445C293.688 36.8847 293.439 37.8616 292.942 38.3758 292.445 38.89 291.597 39.1471 290.397 39.1471L290.397 40.2268C291.083 40.1931 292.111 40.1502 293.482 40.0983 294.852 40.0469 296.189 40.0212 297.493 40.0212 298.76 40.0212 299.985 40.0469 301.169 40.0983 302.353 40.1497 303.252 40.1926 303.868 40.2268L303.868 39.1471C302.873 39.1471 302.162 38.89 301.735 38.3758 301.305 37.8616 301.091 36.8847 301.092 35.445L301.092 21.1509C301.076 20.0903 301.314 19.0412 301.786 18.0915 302.207 17.2313 302.845 16.4959 303.637 15.9577 304.388 15.4496 305.275 15.1807 306.182 15.1864 307.073 15.1864 307.741 15.3664 308.188 15.7263 308.648 16.1112 308.972 16.634 309.113 17.2174 309.296 17.9486 309.382 18.7005 309.37 19.4541L309.37 35.445C309.37 36.8847 309.164 37.8616 308.753 38.3758 308.342 38.89 307.622 39.1471 306.594 39.1471L306.594 40.2268C307.244 40.1931 308.195 40.1502 309.447 40.0983 310.697 40.0469 311.974 40.0212 313.278 40.0212 314.545 40.0212 315.831 40.0469 317.134 40.0983 318.436 40.1497 319.413 40.1926 320.065 40.2268L320.065 39.1471C318.864 39.1471 318.016 38.89 317.52 38.3758 317.022 37.8616 316.774 36.8847 316.774 35.445L316.774 21.6136C316.774 19.8654 316.646 18.4771 316.389 17.4488 316.183 16.5278 315.77 15.666 315.18 14.9293 314.604 14.269 313.87 13.765 313.047 13.4639 312.138 13.104 310.964 12.924 309.524 12.924 307.818 12.8994 306.129 13.2689 304.588 14.0038Z" fill="#205BE6" fill-rule="evenodd" fill-opacity="1" transform="matrix(1 0 0 1.00042 76 660)"/><path d="M26.6084 3.9259C24.7231 3.96048 22.8463 3.97762 20.978 3.97732L10.7717 3.97732C8.8864 3.97732 7.00965 3.96018 5.14147 3.9259 3.2733 3.89162 1.5508 3.85734-0.0260113 3.82306 0.110498 5.57127 0.204865 7.25091 0.257089 8.862 0.309313 10.4731 0.335022 11.7071 0.334216 12.5641 0.334216 13.3185 0.325646 14.0384 0.308507 14.7236 0.298662 15.3083 0.255746 15.892 0.179962 16.4718L1.36257 16.4718C1.97958 13.5587 2.69943 11.2706 3.52212 9.60756 4.3448 7.94455 5.33888 6.76194 6.50435 6.05974 7.66931 5.35753 9.04045 5.00618 10.6178 5.00567L11.749 5.00567 11.749 34.3652C11.749 35.7364 11.6118 36.7647 11.3376 37.4503 11.0634 38.1359 10.5321 38.59 9.74367 38.8129 8.95476 39.0363 7.78929 39.1648 6.24726 39.1985L6.24726 40.2268C7.27561 40.1931 8.62962 40.1588 10.3093 40.124 11.9889 40.0892 13.7714 40.0721 15.6567 40.0726 17.5761 40.0726 19.4186 40.0897 21.1841 40.124 22.9497 40.1583 24.3637 40.1926 25.4261 40.2268L25.4261 39.1985C23.9172 39.1648 22.7689 39.0363 21.9812 38.8129 21.1935 38.5894 20.6536 38.1353 20.3614 37.4503 20.0699 36.7647 19.9242 35.7364 19.9244 34.3652L19.9244 5.00567 21.107 5.00567C22.6834 5.00567 24.0545 5.35703 25.2204 6.05974 26.3863 6.76245 27.3888 7.95362 28.2279 9.63327 29.0675 11.3132 29.7617 13.5927 30.3103 16.4718L31.4929 16.4718C31.4585 15.9921 31.4242 15.4094 31.3902 14.7236 31.3563 14.0379 31.3391 13.318 31.3387 12.5641 31.3387 11.7076 31.3644 10.4736 31.4158 8.862 31.4672 7.25041 31.5615 5.57076 31.6986 3.82306 30.1899 3.85764 28.4932 3.89192 26.6084 3.9259ZM41.0309 14.3123C39.1285 15.2378 37.6374 16.7289 36.5576 18.7856 35.4778 20.8423 34.9379 23.5675 34.9379 26.9611 34.9379 30.3546 35.4778 33.0712 36.5576 35.1108 37.6374 37.1503 39.1285 38.6329 41.0309 39.5584 42.9334 40.4839 45.1015 40.9467 47.5353 40.9467 50.0371 40.9467 52.2309 40.4839 54.1167 39.5584 56.0026 38.6329 57.4765 37.1503 58.5387 35.1108 59.6008 33.0718 60.1321 30.3552 60.1326 26.9611 60.1331 23.5669 59.6018 20.8417 58.5387 18.7856 57.4758 16.7289 56.0019 15.2378 54.1167 14.3123 52.2316 13.3868 50.0378 12.924 47.5353 12.924 45.101 12.924 42.9329 13.3868 41.0309 14.3123ZM51.006 17.0117C51.9133 19.0515 52.3675 22.3679 52.3685 26.9611 52.3696 31.5542 51.9154 34.8621 51.006 36.8847 50.0974 38.9076 48.9405 39.9188 47.5353 39.9183 46.1641 39.9183 45.0158 38.9071 44.0903 36.8847 43.1648 34.8623 42.702 31.5544 42.702 26.9611 42.702 22.3679 43.1648 19.0515 44.0903 17.0117 45.0158 14.9719 46.1641 13.9522 47.5353 13.9524 48.9405 13.9524 50.0974 14.9721 51.006 17.0117ZM78.0254 13.5667C77.1294 13.999 76.326 14.6015 75.6602 15.3406 74.9798 16.0865 74.4242 16.9373 74.0148 17.8601L74.0148 13.0783C72.8705 13.3312 71.7113 13.5115 70.5441 13.6181 69.2924 13.7391 67.9469 13.7991 66.5078 13.7981 65.4795 13.7981 64.4168 13.7467 63.3199 13.6439L63.3199 14.7236C64.5877 14.7236 65.4533 15.0921 65.9165 15.8291 66.3798 16.5661 66.6112 17.7059 66.6107 19.2484L66.6107 35.445C66.6107 36.8847 66.3621 37.8616 65.8651 38.3758 65.3681 38.89 64.5197 39.1471 63.3199 39.1471L63.3199 40.2268C64.0398 40.1931 65.1024 40.1502 66.5078 40.0983 67.9132 40.0464 69.3015 40.0207 70.6727 40.0212 72.318 40.0212 73.8949 40.0469 75.4031 40.0983 76.9114 40.1497 78.0597 40.1926 78.8481 40.2268L78.8481 39.1471C77.2364 39.1471 76.0281 38.8557 75.2231 38.273 74.4182 37.6902 74.0154 36.5762 74.0148 34.9308L74.0148 21.3051C74.0215 20.5793 74.1429 19.8591 74.3747 19.1713 74.6091 18.4459 74.9375 17.7545 75.3517 17.1146 75.7476 16.4969 76.2529 15.9568 76.8428 15.5206 77.3862 15.109 78.0214 14.8355 78.6938 14.7236 79.1559 14.5533 79.6604 14.5352 80.1335 14.6722 79.4957 15.1043 78.946 15.654 78.5139 16.2919 78.0849 16.927 77.8707 17.724 77.8712 18.6828 77.8712 19.6774 78.2054 20.4744 78.8738 21.0737 79.5422 21.6731 80.4763 21.973 81.6761 21.9735 82.8758 21.9735 83.8442 21.5708 84.5812 20.7652 85.3182 19.9597 85.6867 18.9227 85.6867 17.6544 85.6882 16.874 85.5216 16.1024 85.1982 15.3921 84.87 14.6696 84.3441 14.0546 83.6814 13.6181 82.9953 13.1554 82.104 12.924 81.0076 12.924 79.9777 12.9094 78.9579 13.1292 78.0254 13.5667ZM94.1701 14.518C92.25 15.5808 90.7332 17.1662 89.6197 19.2741 88.5061 21.382 87.9491 23.9786 87.9486 27.0639 87.9486 30.2863 88.4885 32.9172 89.5683 34.9565 90.648 36.9959 92.0877 38.5042 93.8873 39.4813 95.687 40.4582 97.7008 40.9467 99.9289 40.9467 101.917 40.9467 103.596 40.5439 104.968 39.7384 106.302 38.967 107.445 37.9035 108.31 36.6276 109.117 35.4611 109.742 34.1779 110.161 32.8227L109.287 32.5142C108.601 33.6454 107.855 34.5195 107.05 35.1365 106.35 35.699 105.547 36.1183 104.685 36.3705 103.99 36.5654 103.273 36.6691 102.551 36.679 101.399 36.6732 100.27 36.3532 99.2862 35.7535 98.2402 35.1365 97.3832 34.0739 96.7153 32.5656 96.0474 31.0573 95.7132 28.9835 95.7127 26.344 95.7009 24.7226 95.8473 23.1038 96.1497 21.5108 96.3954 20.1748 96.8191 18.8778 97.4095 17.6544 97.9574 16.5577 98.6344 15.7008 99.4405 15.0836 100.243 14.4673 101.231 14.1411 102.243 14.158 102.878 14.1484 103.508 14.271 104.094 14.518 104.569 14.7061 104.993 15.0059 105.328 15.3921 104.416 15.6448 103.595 16.1532 102.963 16.8575 102.277 17.595 101.934 18.5119 101.934 19.6083 101.934 20.774 102.294 21.6995 103.014 22.3849 103.734 23.0702 104.694 23.413 105.894 23.4132 107.093 23.4132 108.07 23.0276 108.824 22.2563 109.578 21.4851 109.956 20.4996 109.956 19.2998 109.976 18.3141 109.717 17.3428 109.21 16.4975 108.686 15.6658 107.972 14.9699 107.128 14.4665 106.27 13.9651 105.343 13.5926 104.377 13.3611 103.175 13.0593 101.939 12.9124 100.7 12.924 98.2661 12.924 96.0893 13.4553 94.1701 14.518ZM119.776 0.558034C118.507 0.679017 117.17 0.739004 115.765 0.737996 114.737 0.737996 113.674 0.686578 112.577 0.583743L112.577 1.66352C113.845 1.66352 114.71 2.03201 115.174 2.769 115.637 3.50599 115.869 4.64575 115.868 6.18828L115.868 35.445C115.868 36.8847 115.619 37.8616 115.122 38.3758 114.625 38.89 113.777 39.1471 112.577 39.1471L112.577 40.2268C113.263 40.1931 114.283 40.1502 115.637 40.0983 116.991 40.0464 118.336 40.0207 119.673 40.0212 120.907 40.0212 122.124 40.0469 123.324 40.0983 124.523 40.1497 125.432 40.1926 126.049 40.2268L126.049 39.1471C125.021 39.1471 124.301 38.89 123.89 38.3758 123.478 37.8616 123.273 36.8847 123.273 35.445L123.273 21.0994C123.251 20.03 123.489 18.9713 123.967 18.0144 124.389 17.1688 125.028 16.4503 125.818 15.9319 126.575 15.4394 127.46 15.1801 128.363 15.1864 129.219 15.1864 129.879 15.3664 130.343 15.7263 130.816 16.1039 131.151 16.6285 131.294 17.2174 131.477 17.9486 131.563 18.7005 131.551 19.4541L131.551 35.445C131.551 36.8847 131.345 37.8616 130.934 38.3758 130.523 38.89 129.803 39.1471 128.774 39.1471L128.774 40.2268C129.391 40.1931 130.325 40.1502 131.577 40.0983 132.828 40.0464 134.122 40.0207 135.459 40.0212 136.693 40.0212 137.969 40.0469 139.289 40.0983 140.609 40.1497 141.594 40.1926 142.246 40.2268L142.246 39.1471C141.045 39.1471 140.197 38.89 139.701 38.3758 139.204 37.8616 138.956 36.8847 138.955 35.445L138.955 21.6136C138.955 19.8654 138.826 18.4771 138.569 17.4488 138.362 16.5186 137.929 15.6535 137.31 14.9293 136.74 14.2731 136.015 13.7694 135.202 13.4639 134.31 13.104 133.127 12.924 131.654 12.924 129.958 12.8978 128.279 13.2583 126.743 13.9781 125.286 14.6811 124.129 15.9237 123.273 17.7059L123.273 0.0181474C122.12 0.27235 120.952 0.452679 119.776 0.558034Z" fill="#2F2F41" fill-rule="evenodd" fill-opacity="1" transform="matrix(1 0 0 1.00042 76 660)"/></g></g></svg>