<svg width="310" height="58" xmlns="http://www.w3.org/2000/svg" xmlns:xlink="http://www.w3.org/1999/xlink" xml:space="preserve" overflow="hidden"><g transform="translate(-50 -570)"><g><g><g><g><path d="M85.0597 9.3568C83.3975 9.38729 81.7429 9.4024 80.0957 9.40213L71.0971 9.40213C69.4349 9.40213 67.7801 9.38702 66.1329 9.3568 64.4857 9.32658 62.9671 9.29636 61.5771 9.26613 61.6975 10.8075 61.7806 12.2884 61.8264 13.7088 61.8722 15.1292 61.8948 16.2172 61.8943 16.9728 61.8943 17.638 61.8868 18.2726 61.8717 18.8768 61.863 19.3923 61.8252 19.9069 61.7583 20.4181L62.8011 20.4181C63.3449 17.8497 63.9795 15.8324 64.7049 14.3661 65.4304 12.8999 66.3068 11.8572 67.3344 11.2381 68.3615 10.619 69.5704 10.3092 70.9611 10.3088L71.9584 10.3088 71.9584 36.1941C71.9584 37.403 71.8375 38.3097 71.5957 38.9141 71.354 39.5186 70.8856 39.919 70.1905 40.1155 69.4949 40.3124 68.4673 40.4258 67.1077 40.4555L67.1077 41.3621C68.0144 41.3324 69.2082 41.3021 70.6892 41.2715 72.1702 41.2408 73.7417 41.2257 75.4037 41.2261 77.096 41.2261 78.7205 41.2412 80.2772 41.2715 81.8339 41.3017 83.0805 41.3319 84.0171 41.3621L84.0171 40.4555C82.6869 40.4258 81.6745 40.3124 80.9799 40.1155 80.2852 39.9185 79.8092 39.518 79.5517 38.9141 79.2947 38.3097 79.1663 37.403 79.1665 36.1941L79.1665 10.3088 80.2091 10.3088C81.5989 10.3088 82.8078 10.6186 83.8357 11.2381 84.8637 11.8577 85.7476 12.9079 86.4876 14.3888 87.2279 15.87 87.8399 17.8798 88.3237 20.4181L89.3663 20.4181C89.3359 19.9954 89.3056 19.4816 89.2756 18.8768 89.2456 18.272 89.2305 17.6373 89.2304 16.9728 89.2304 16.2177 89.253 15.1297 89.2983 13.7088 89.3435 12.2879 89.4267 10.807 89.5477 9.26613 88.2174 9.29662 86.7214 9.32685 85.0597 9.3568ZM97.7756 18.5141C96.0983 19.3301 94.7836 20.6448 93.8316 22.4581 92.8796 24.2715 92.4036 26.6741 92.4036 29.6661 92.4036 32.6581 92.8796 35.0532 93.8316 36.8515 94.7836 38.6497 96.0983 39.9568 97.7756 40.7728 99.4529 41.5888 101.364 41.9968 103.51 41.9968 105.716 41.9968 107.65 41.5888 109.313 40.7728 110.976 39.9568 112.275 38.6497 113.212 36.8515 114.148 35.0538 114.616 32.6587 114.617 29.6661 114.617 26.6736 114.149 24.2709 113.212 22.4581 112.275 20.6448 110.975 19.3301 109.313 18.5141 107.651 17.6981 105.717 17.2901 103.51 17.2901 101.364 17.2901 99.4525 17.6981 97.7756 18.5141ZM106.57 20.8941C107.37 22.6927 107.771 25.6167 107.772 29.6661 107.772 33.7156 107.372 36.632 106.57 38.4155 105.769 40.1991 104.749 41.0907 103.51 41.0901 102.301 41.0901 101.289 40.1986 100.473 38.4155 99.6569 36.6324 99.2489 33.7159 99.2489 29.6661 99.2489 25.6167 99.6569 22.6927 100.473 20.8941 101.289 19.0956 102.301 18.1964 103.51 18.1968 104.749 18.1968 105.769 19.0959 106.57 20.8941ZM130.392 17.8568C129.602 18.2379 128.894 18.7691 128.307 19.4208 127.707 20.0784 127.217 20.8285 126.856 21.6421L126.856 17.4267C125.847 17.6498 124.825 17.8088 123.796 17.9027 122.693 18.0093 121.507 18.0622 120.238 18.0613 119.331 18.0613 118.394 18.016 117.427 17.9253L117.427 18.8773C118.545 18.8773 119.308 19.2022 119.716 19.852 120.125 20.5018 120.329 21.5067 120.328 22.8667L120.328 37.1467C120.328 38.416 120.109 39.2773 119.671 39.7307 119.233 40.184 118.485 40.4107 117.427 40.4107L117.427 41.3627C118.062 41.3329 118.999 41.2951 120.238 41.2493 121.477 41.2036 122.701 41.1809 123.91 41.1813 125.36 41.1813 126.751 41.204 128.08 41.2493 129.41 41.2947 130.423 41.3324 131.118 41.3627L131.118 40.4107C129.697 40.4107 128.631 40.1538 127.922 39.64 127.212 39.1262 126.857 38.144 126.856 36.6933L126.856 24.68C126.866 23.8205 127.051 22.972 127.4 22.1867 127.746 21.3661 128.246 20.6196 128.874 19.988 129.437 19.3982 130.177 19.0082 130.982 18.8773 131.389 18.7272 131.834 18.7113 132.251 18.832 131.689 19.2131 131.204 19.6977 130.823 20.26 130.445 20.82 130.256 21.5227 130.256 22.368 130.256 23.2449 130.551 23.9476 131.14 24.476 131.73 25.0044 132.553 25.2689 133.611 25.2693 134.668 25.2693 135.522 24.9142 136.172 24.204 136.822 23.4938 137.147 22.5796 137.147 21.4613 137.148 20.7732 137.001 20.0929 136.716 19.4667 136.427 18.8295 135.963 18.2873 135.379 17.9027 134.774 17.4947 133.989 17.2907 133.022 17.2907 132.114 17.2777 131.215 17.4713 130.392 17.8568ZM144.627 18.6955C142.933 19.6326 141.596 21.0304 140.615 22.8888 139.633 24.7472 139.142 27.0365 139.141 29.7568 139.141 32.598 139.617 34.9176 140.569 36.7155 141.521 38.5133 142.791 39.8431 144.377 40.7048 145.964 41.5661 147.74 41.9968 149.704 41.9968 151.456 41.9968 152.937 41.6417 154.147 40.9315 155.323 40.2512 156.331 39.3136 157.093 38.1888 157.805 37.1602 158.355 36.0289 158.725 34.8341L157.955 34.5621C157.017 36.0737 156.005 37.0635 154.917 37.5315 153.83 37.9995 152.863 38.2337 152.016 38.2341 151 38.229 150.005 37.9469 149.137 37.4181 148.215 36.8741 147.459 35.9372 146.871 34.6075 146.282 33.2777 145.988 31.4492 145.987 29.1221 145.976 27.6925 146.105 26.2653 146.372 24.8608 146.588 23.6828 146.962 22.5393 147.483 21.4608 147.965 20.494 148.562 19.7385 149.273 19.1941 149.981 18.6507 150.852 18.363 151.744 18.3781 152.304 18.3697 152.86 18.4778 153.376 18.6955 153.795 18.8616 154.168 19.1259 154.464 19.4661 153.66 19.6889 152.936 20.1372 152.379 20.7581 151.773 21.4084 151.471 22.2168 151.472 23.1835 151.472 24.2114 151.789 25.0274 152.424 25.6315 153.059 26.2356 153.905 26.5378 154.963 26.5381 156.02 26.5381 156.882 26.1981 157.547 25.5181 158.212 24.8381 158.544 23.9692 158.544 22.9115 158.562 22.0425 158.334 21.1861 157.887 20.4408 157.424 19.7076 156.795 19.0941 156.051 18.6501 155.294 18.2081 154.477 17.8797 153.625 17.6755 152.566 17.4095 151.476 17.28 150.384 17.2901 148.237 17.2901 146.318 17.7586 144.627 18.6955ZM167.203 6.38747C166.084 6.49413 164.905 6.54702 163.667 6.54613 162.76 6.54613 161.823 6.5008 160.856 6.41013L160.856 7.36213C161.973 7.36213 162.736 7.68702 163.145 8.3368 163.554 8.98658 163.758 9.99147 163.757 11.3515L163.757 37.1467C163.757 38.416 163.538 39.2773 163.1 39.7307 162.662 40.184 161.914 40.4107 160.856 40.4107L160.856 41.3627C161.46 41.3329 162.36 41.2951 163.553 41.2493 164.747 41.2036 165.933 41.1809 167.112 41.1813 168.2 41.1813 169.273 41.204 170.331 41.2493 171.388 41.2947 172.189 41.3324 172.733 41.3627L172.733 40.4107C171.827 40.4107 171.192 40.184 170.829 39.7307 170.467 39.2773 170.285 38.416 170.285 37.1467L170.285 24.4987C170.285 22.9573 170.724 21.7031 171.6 20.736 172.476 19.7689 173.534 19.2853 174.773 19.2853 175.528 19.2853 176.11 19.444 176.519 19.7613 176.936 20.0944 177.231 20.5569 177.357 21.076 177.518 21.7207 177.595 22.3836 177.584 23.048L177.584 37.1467C177.584 38.416 177.403 39.2773 177.04 39.7307 176.677 40.184 176.043 40.4107 175.136 40.4107L175.136 41.3627C175.68 41.3329 176.504 41.2951 177.607 41.2493 178.71 41.2036 179.851 41.1809 181.029 41.1813 182.117 41.1813 183.243 41.204 184.407 41.2493 185.57 41.2947 186.439 41.3324 187.013 41.3627L187.013 40.4107C185.955 40.4107 185.207 40.184 184.769 39.7307 184.332 39.2773 184.113 38.416 184.112 37.1467L184.112 24.952C184.112 23.4107 183.999 22.1867 183.772 21.28 183.589 20.4599 183.208 19.6972 182.661 19.0587 182.159 18.4801 181.52 18.0361 180.803 17.7667 180.016 17.4493 178.973 17.2907 177.675 17.2907 176.18 17.2675 174.699 17.5853 173.345 18.22 172.06 18.8399 171.04 19.9355 170.285 21.5067L170.285 5.91147C169.269 6.13553 168.239 6.29452 167.203 6.38747Z" fill="#2F2F41" fill-rule="evenodd" fill-opacity="1" transform="matrix(1.00435 0 0 1 51 571)"/><path d="M199.683 9.31147C198.307 9.34196 197.075 9.37218 195.988 9.40213 194.719 9.43262 193.442 9.42507 192.157 9.37947 190.873 9.33387 189.853 9.29609 189.097 9.26613L189.097 10.1728C190.033 10.2033 190.751 10.3166 191.251 10.5128 191.737 10.6965 192.107 11.1003 192.248 11.6008 192.413 12.13 192.496 12.9535 192.497 14.0715L192.497 36.5568C192.497 37.6448 192.414 38.4608 192.248 39.0048 192.121 39.505 191.757 39.9114 191.273 40.0928 190.789 40.2741 190.064 40.395 189.097 40.4555L189.097 41.3621C189.852 41.302 190.872 41.2642 192.157 41.2488 193.443 41.2334 194.75 41.2259 196.079 41.2261 197.076 41.2261 198.247 41.2488 199.592 41.2941 200.937 41.3395 201.972 41.3621 202.697 41.3621 206.475 41.3621 209.716 40.6821 212.421 39.3221 215.125 37.9621 217.188 36.0506 218.609 33.5875 220.031 31.1244 220.741 28.2457 220.74 24.9515 220.74 19.9047 219.289 16.0287 216.388 13.3235 213.487 10.6182 209.059 9.26596 203.105 9.26667 202.199 9.26667 201.058 9.2816 199.683 9.31147ZM210.857 13.7995C212.428 16.278 213.214 20.0558 213.215 25.1328 213.215 28.4274 212.897 31.2229 212.263 33.5195 211.628 35.816 210.578 37.5613 209.112 38.7555 207.645 39.9497 205.643 40.5466 203.105 40.5461 201.715 40.5461 200.8 40.2892 200.363 39.7755 199.925 39.2617 199.706 38.219 199.705 36.6475L199.705 13.9808C199.705 12.4098 199.917 11.3671 200.34 10.8528 200.763 10.3385 201.67 10.0816 203.06 10.0821 206.687 10.0821 209.286 11.3214 210.857 13.8ZM236.787 17.8568C235.997 18.2378 235.288 18.769 234.701 19.4208 234.101 20.0783 233.611 20.8284 233.251 21.6421L233.251 17.4267C232.242 17.6498 231.22 17.8087 230.191 17.9027 229.087 18.0093 227.9 18.0622 226.632 18.0613 225.725 18.0613 224.788 18.016 223.821 17.9253L223.821 18.8773C224.939 18.8773 225.702 19.2022 226.111 19.852 226.52 20.5018 226.724 21.5067 226.723 22.8667L226.723 37.1467C226.723 38.416 226.504 39.2773 226.065 39.7307 225.627 40.184 224.879 40.4107 223.821 40.4107L223.821 41.3627C224.456 41.3329 225.393 41.2951 226.632 41.2493 227.871 41.2036 229.095 41.1809 230.304 41.1813 231.755 41.1813 233.145 41.204 234.475 41.2493 235.804 41.2947 236.817 41.3324 237.512 41.3627L237.512 40.4107C236.091 40.4107 235.025 40.1538 234.316 39.64 233.607 39.1262 233.252 38.144 233.251 36.6933L233.251 24.68C233.26 23.8205 233.445 22.972 233.795 22.1867 234.14 21.3661 234.64 20.6196 235.268 19.988 235.831 19.398 236.571 19.008 237.376 18.8773 237.783 18.7272 238.228 18.7113 238.645 18.832 238.083 19.2129 237.598 19.6976 237.217 20.26 236.839 20.82 236.65 21.5227 236.651 22.368 236.651 23.2449 236.945 23.9476 237.535 24.476 238.124 25.0044 238.948 25.2689 240.005 25.2693 241.063 25.2693 241.916 24.9142 242.567 24.204 243.217 23.4938 243.542 22.5796 243.541 21.4613 243.543 20.7732 243.396 20.0929 243.111 19.4667 242.821 18.8298 242.358 18.2877 241.773 17.9027 241.168 17.4947 240.382 17.2907 239.416 17.2907 238.508 17.2776 237.609 17.4712 236.787 17.8568ZM264.508 17.9021C263.404 18.0088 262.218 18.0617 260.949 18.0608 260.043 18.0608 259.106 18.0155 258.139 17.9248L258.139 18.8768C259.256 18.8768 260.019 19.2017 260.428 19.8515 260.837 20.5012 261.041 21.5061 261.04 22.8661L261.04 34.7435C261.04 36.2247 260.609 37.4714 259.748 38.4835 258.887 39.4956 257.852 40.0018 256.643 40.0021 255.887 40.0021 255.313 39.8435 254.92 39.5261 254.511 39.1834 254.232 38.7117 254.127 38.1888 253.982 37.534 253.914 36.8647 253.923 36.1941L253.923 17.4267C252.914 17.6498 251.892 17.8087 250.863 17.9027 249.759 18.0093 248.572 18.0622 247.304 18.0613 246.397 18.0613 245.46 18.016 244.493 17.9253L244.493 18.8773C245.611 18.8773 246.374 19.2022 246.783 19.852 247.192 20.5018 247.396 21.5067 247.395 22.8667L247.395 34.336C247.395 35.8172 247.5 37.026 247.712 37.9627 247.924 38.8993 248.286 39.6549 248.8 40.2293 249.316 40.7872 249.951 41.2212 250.659 41.4987 251.444 41.8309 252.472 41.9972 253.741 41.9973 255.226 42.0169 256.695 41.6828 258.025 41.0227 259.309 40.3732 260.314 39.2928 261.04 37.7813L261.04 41.8613C262.052 41.612 263.083 41.4452 264.123 41.3627 265.211 41.272 266.389 41.2267 267.659 41.2267 268.595 41.2267 269.532 41.272 270.469 41.3627L270.469 40.4107C269.381 40.4107 268.626 40.0858 268.203 39.436 267.78 38.7862 267.568 37.7813 267.568 36.4213L267.568 17.4267C266.559 17.6496 265.537 17.8084 264.508 17.9021ZM288.739 48.7288C290.703 47.9581 292.161 46.9381 293.113 45.6688 294.065 44.3995 294.541 43.0244 294.541 41.5435 294.541 39.398 293.71 37.8642 292.048 36.9421 290.386 36.0201 288.3 35.5592 285.792 35.5595L280.851 35.5595C279.641 35.5595 279.037 35.0759 279.037 34.1088 279.026 33.4986 279.303 32.9187 279.785 32.5448 280.298 32.1269 280.835 31.7408 281.395 31.3888L280.941 31.0261C278.976 31.8726 277.495 32.7793 276.499 33.7461 275.502 34.713 275.004 35.8312 275.003 37.1008 275.003 38.0075 275.26 38.7555 275.773 39.3448 276.287 39.9341 277.005 40.3648 277.927 40.6368 278.982 40.9264 280.074 41.0638 281.168 41.0448L283.979 41.0448C285.973 41.0448 287.303 41.3546 287.968 41.9741 288.616 42.5567 288.98 43.3919 288.965 44.2635 288.965 45.3212 288.656 46.2128 288.036 46.9381 287.416 47.6635 286.57 48.2075 285.497 48.5701 284.319 48.949 283.086 49.1327 281.848 49.1141 279.853 49.1141 278.274 48.7741 277.111 48.0941 275.947 47.4141 275.365 46.4395 275.365 45.1701 275.365 44.5963 275.497 44.0301 275.751 43.5155 276.049 42.9361 276.475 42.4322 276.997 42.0421L276.589 41.3168C274.927 41.7397 273.672 42.3215 272.827 43.0621 271.981 43.8028 271.558 44.6414 271.557 45.5781 271.557 46.5147 271.973 47.308 272.804 47.9581 273.635 48.6083 274.784 49.0918 276.249 49.4088 277.898 49.7441 279.577 49.9037 281.259 49.8848 284.28 49.8848 286.773 49.4995 288.739 48.7288ZM288.172 29.9608C289.879 28.7978 290.732 26.9769 290.733 24.4981 290.733 21.99 289.88 20.1616 288.172 19.0128 286.464 17.864 284.311 17.2898 281.712 17.2901 279.143 17.2901 276.997 17.8644 275.275 19.0128 273.552 20.1612 272.691 21.9897 272.691 24.4981 272.691 26.9766 273.552 28.7975 275.275 29.9608 276.997 31.1241 279.143 31.7059 281.712 31.7061 284.311 31.7065 286.464 31.1247 288.172 29.9608ZM279.831 29.5075C279.361 28.586 279.127 26.9162 279.128 24.4981 279.129 22.0801 279.363 20.4103 279.831 19.4888 280.299 18.5674 280.926 18.1067 281.712 18.1067 282.528 18.1067 283.163 18.5676 283.616 19.4893 284.069 20.4111 284.296 22.0809 284.296 24.4987 284.296 26.917 284.069 28.5868 283.616 29.508 283.163 30.4292 282.528 30.8901 281.712 30.8907 280.925 30.8903 280.298 30.4292 279.831 29.5075ZM290.28 18.9448C290.853 18.386 291.715 17.8949 292.864 17.4715L292.547 17.2C291.972 18.3787 291.715 19.3382 291.776 20.0787 291.837 20.8191 292.086 21.3707 292.524 21.7333 292.919 22.0801 293.426 22.2732 293.952 22.2773 294.56 22.2759 295.145 22.0405 295.584 21.62 296.067 21.1823 296.308 20.5099 296.309 19.6027 296.309 18.757 296.06 18.0694 295.561 17.54 295.063 17.0106 294.33 16.7461 293.363 16.7467 292.184 16.7467 291.088 17.1396 290.076 17.9253 289.083 18.6841 288.322 19.7045 287.877 20.872L288.784 21.1893C289.138 20.3543 289.646 19.593 290.28 18.9448Z" fill="#E5261F" fill-rule="evenodd" fill-opacity="1" transform="matrix(1.00435 0 0 1 51 571)"/><path d="M30.8667 3.86667 50 14.9 50 36.9667 30.8667 48 11.7333 36.9667 11.7333 14.9Z" stroke="#E5261F" stroke-width="4" stroke-linecap="butt" stroke-linejoin="miter" stroke-miterlimit="4" stroke-opacity="1" fill="none" fill-rule="evenodd" transform="matrix(1.00435 0 0 1 51 571)"/><path d="M28.188 17.128C27.4319 17.1448 26.755 17.1614 26.1572 17.1779 25.4594 17.1946 24.7576 17.1904 24.0516 17.1653 23.3456 17.1403 22.785 17.1195 22.3696 17.1031L22.3696 17.6013C22.7717 17.5989 23.1714 17.662 23.5532 17.788 23.8206 17.8888 24.0241 18.1108 24.1015 18.3859 24.21 18.8299 24.2561 19.2869 24.2385 19.7437L24.2385 32.1011C24.2548 32.5537 24.2086 33.0064 24.1015 33.4464 24.0316 33.7214 23.8314 33.9448 23.5657 34.0444 23.1781 34.1657 22.7756 34.2327 22.3696 34.2436L22.3696 34.742C22.7846 34.7088 23.3453 34.688 24.0516 34.6796 24.7579 34.6712 25.4764 34.6671 26.2071 34.6672 26.7552 34.6672 27.3988 34.6796 28.1381 34.7045 28.8774 34.7294 29.4463 34.7419 29.8448 34.742 31.9211 34.742 33.7027 34.3683 35.1896 33.6208 36.6122 32.9328 37.7967 31.8353 38.5909 30.4692 39.3715 29.1156 39.7618 27.5334 39.762 25.7225 39.762 22.9492 38.9646 20.8191 37.3699 19.3321 35.7751 17.8452 33.3416 17.1022 30.0693 17.1031 29.5709 17.1031 28.9438 17.1114 28.188 17.128ZM34.3303 19.5947C35.1937 20.9566 35.6256 23.0328 35.626 25.8231 35.626 27.6337 35.4516 29.1701 35.1027 30.4323 34.7538 31.6944 34.1765 32.6536 33.3709 33.3097 32.5649 33.9662 31.4644 34.2942 30.0693 34.2939 29.3049 34.2939 28.8024 34.1527 28.5617 33.8704 28.3211 33.5881 28.2007 33.0151 28.2004 32.1513L28.2004 19.6941C28.2004 18.8308 28.3167 18.2577 28.5493 17.9751 28.782 17.6924 29.2803 17.5512 30.0444 17.5516 32.0377 17.5516 33.4664 18.2326 34.3303 19.5945Z" fill="#2F2F41" fill-rule="evenodd" fill-opacity="1" transform="matrix(1.00435 0 0 1 51 571)"/></g></g></g></g></g></svg>